<svg xmlns="http://www.w3.org/2000/svg" viewBox="0 0 739 476.58"><defs><style>.cls-1{fill:#dff6d7;}.cls-2{fill:#c4ddba;}.cls-3{fill:#f2f9ef;}.cls-4{fill:#3e3e3e;}.cls-5{fill:#fff;}.cls-6{fill:#d9d9d9;}.cls-7{fill:#5cb9d1;}.cls-8{fill:#1299b5;}.cls-9{fill:#52773b;}.cls-10{fill:#30491f;}.cls-11{fill:#1e0415;}.cls-12{fill:#fbbd9d;}.cls-13{fill:#db9771;}.cls-14{fill:#00968a;}.cls-15{fill:#101e3e;}.cls-16{fill:#ff8b93;}.cls-17{fill:#41d4c5;}.cls-18{fill:#efefef;}.cls-19{fill:#22ecd4;}.cls-20{fill:#0d2b33;}.cls-21{fill:#263238;}.cls-22{fill:#7a94e3;}.cls-23{fill:#88e2de;}.cls-24{fill:#191919;}.cls-25{fill:#aa6d6d;}</style></defs><g id="Layer_2" data-name="Layer 2"><g id="mcat"><path class="cls-1" d="M49,475h688s19.3-167.56-59.71-215.36-4.57-81.67-44.79-138.5-145.17,20.25-166.83-58.7S356.89-16.26,283,38.83,191.86,53.24,146.16,61.34,77.36,121,95.44,204.9,33.24,308,15.46,337.34-18.2,423.4,49,475Z"></path><path class="cls-2" d="M542.52,461s-2.13-112,19.14-153.82,59.54-68.76,75.13-51,1.42,61-12.76,91.44-36.15,124.05-36.15,124.05Z"></path><path class="cls-1" d="M626.63,302.9a.69.69,0,0,0-.87-.42l-26.16,9.2A182.22,182.22,0,0,1,614,284.87a.68.68,0,0,0-.19-.95.69.69,0,0,0-.95.19A184.3,184.3,0,0,0,598.38,311l-8.25-23.3a.69.69,0,0,0-.88-.42.7.7,0,0,0-.42.88l8.75,24.68c-4.2,9.6-8.07,19.93-11.61,30.54l-10.7-22.36a.69.69,0,1,0-1.24.6l11.32,23.64c-3.18,9.65-6.09,19.49-8.73,29.18l-10.07-22.42a.69.69,0,0,0-1.26.56l10.76,23.95c-2.78,10.34-5.25,20.47-7.41,30l-8.06-22.74a.69.69,0,0,0-.88-.42.7.7,0,0,0-.42.88L568.07,409c-2,8.89-3.71,17.16-5.14,24.47l-8.06-22.74a.69.69,0,0,0-.88-.42.7.7,0,0,0-.42.88l8.82,24.89,0,0c-3.26,16.85-4.92,27.93-5,28.3a.7.7,0,0,0,.58.78h.1a.69.69,0,0,0,.68-.59c.06-.37,1.72-11.45,5-28.28L591,426.81a.69.69,0,0,0-.46-1.3l-26.42,9.29c1.47-7.53,3.24-16.13,5.32-25.39l27.27-9.58a.69.69,0,0,0-.45-1.3l-26.46,9.3c2.21-9.77,4.76-20.24,7.63-30.93l26.44-11.8a.68.68,0,1,0-.56-1.25l-25.41,11.33c2.66-9.81,5.6-19.77,8.82-29.54l26.18-12.44a.69.69,0,0,0-.59-1.24l-25,11.88c3.53-10.58,7.39-20.88,11.57-30.44l27.37-9.62A.69.69,0,0,0,626.63,302.9Z"></path><path class="cls-3" d="M570.94,457.21s35.37-72.77,59.83-66.39,10.28,35.09-1.77,50.33-43.42,32.25-43.42,32.25l-18.79-4.5Z"></path><path class="cls-2" d="M632,421.41a.68.68,0,0,0-.83-.51l-13.86,3.22a121.29,121.29,0,0,0,10-15.54.69.69,0,0,0-.31-.92.68.68,0,0,0-.92.31,119.61,119.61,0,0,1-9.88,15.33L615,408.22a.69.69,0,0,0-.74-.63.69.69,0,0,0-.63.74L614.94,425c-3.46,4.67-7.32,9.58-11.18,14.35V425.2a.69.69,0,1,0-1.38,0V441c-4.19,5.13-8.33,10.05-11.94,14.27l.27-14a.68.68,0,0,0-.67-.7.73.73,0,0,0-.7.68L589,456.94c-5.81,6.75-9.95,11.36-10.07,11.5a.67.67,0,0,0,0,1,.66.66,0,0,0,.46.17.7.7,0,0,0,.51-.22c.12-.14,4.25-4.74,10.06-11.49l14.21-1.2a.68.68,0,0,0-.12-1.36l-12.81,1.07c3.64-4.25,7.84-9.24,12.09-14.45l16.83-2.67a.68.68,0,1,0-.21-1.35l-15.32,2.42c3.91-4.82,7.81-9.79,11.32-14.51l15.43-3.58A.7.7,0,0,0,632,421.41Z"></path><path class="cls-2" d="M150.45,474.77s-21.23-72-42.93-101.62-22.23-75.45,13-78,50.14,49.7,59.77,88.09,8.55,91.56,8.55,91.56Z"></path><path class="cls-1" d="M179.61,432.14a.69.69,0,0,0-1,.21l-11.08,17.23q-3.47-14.88-7.07-27.91l12.19-22.22a.7.7,0,0,0-1.23-.68l-11.49,21c-2.86-10.3-5.74-19.75-8.56-28.36l10.53-29.18a.7.7,0,0,0-1.32-.47l-9.93,27.49c-4.46-13.43-8.78-24.78-12.68-34.14l7-24.92a.7.7,0,0,0-1.35-.38L137.14,353c-9.23-21.82-15.87-32.15-16-32.37a.71.71,0,0,0-1-.2.7.7,0,0,0-.21,1c.14.22,6.82,10.6,16.08,32.56l-22.35-6.24a.7.7,0,1,0-.38,1.35l23.42,6.54c3.9,9.38,8.24,20.78,12.73,34.3l-23.18-11.39a.7.7,0,0,0-.94.32.71.71,0,0,0,.32.94l24.42,12c2.85,8.69,5.75,18.22,8.63,28.63l-19.92-7.58a.69.69,0,0,0-.9.4.71.71,0,0,0,.4.91l20.88,7.95c2.4,8.75,4.79,18.11,7.11,28.1l-19.7-8.07a.7.7,0,0,0-.53,1.29l20.62,8.46q2.42,10.45,4.73,21.82a.69.69,0,0,0,.68.57l.14,0a.69.69,0,0,0,.55-.82Q170.45,462,168,451.49l11.81-18.38A.7.7,0,0,0,179.61,432.14Z"></path><path class="cls-3" d="M160.42,474.77H128.67S67.79,409.37,82,380.39s38-28.29,50.43-1.94S160.42,474.77,160.42,474.77Z"></path><path class="cls-2" d="M147.37,452.82a.7.7,0,0,0-.91.39l-4.63,11.62c-2-5.52-4-11.07-6.15-16.53l6.77-16.15a.69.69,0,0,0-.37-.91.71.71,0,0,0-.92.37l-6.22,14.82c-2.48-6.3-5-12.46-7.52-18.34l7.33-19.37a.7.7,0,1,0-1.31-.5l-6.81,18c-3.42-8-6.73-15.35-9.68-21.73l7.13-17.88a.69.69,0,0,0-.39-.91.7.7,0,0,0-.91.39l-6.64,16.65c-5.89-12.72-10.08-21-10.18-21.23a.72.72,0,0,0-.95-.31.71.71,0,0,0-.3,1c.1.2,4.35,8.61,10.29,21.44l-19.11-3.11a.7.7,0,1,0-.23,1.38l20,3.26c3,6.45,6.33,13.92,9.78,22l-23.23-4.93a.69.69,0,0,0-.83.54.7.7,0,0,0,.53.83l24.2,5.13c2.54,6,5.12,12.22,7.63,18.6l-19.41-4.49a.69.69,0,0,0-.84.52.7.7,0,0,0,.52.84l20.35,4.72c2.16,5.54,4.26,11.17,6.23,16.77l-13.88-5.11a.7.7,0,0,0-.49,1.31l15,5.51q1.26,3.61,2.43,7.2a.71.71,0,0,0,.67.48l.21,0a.71.71,0,0,0,.45-.89q-1.19-3.62-2.46-7.28l5.23-13.11A.7.7,0,0,0,147.37,452.82Z"></path><path class="cls-4" d="M567.83,196s17.86-6.3,16.18-30.46l-15.13,5.25A26.39,26.39,0,0,0,567.83,196Z"></path><path class="cls-5" d="M618.47,149c-2.47,4.69-5.81,11.23-9.31,17.95-6.92,13.29-14.44,27.3-17.07,29.11a22.72,22.72,0,0,1-4.14,2,21.34,21.34,0,0,1-6.88,1.73c-2.53,0-15.13-13.87-15.13-13.87L584,165.56s18.46-14.76,26.2-25.16A14.2,14.2,0,0,0,618.47,149Z"></path><path class="cls-6" d="M592,192.08a20.58,20.58,0,0,1-3.92,4.1c-2.43,1-5.18,3.6-6.92,3.61C578.63,199.79,566,186,566,186l18-20.45s-.07.15-.16.41c0,0,0,0,0,0-1.51,2.54-9.43,15.94-9.29,19.8.16,4.25,3.51,7.83,5.82,9.28C583.72,197.24,588.54,194.67,592,192.08Z"></path><path class="cls-6" d="M642.76,127.05c-1.07.76-18.28,12.94-20.42,15.09-1.05,1.05-6.86,12.61-13.17,24.77l10.12-27.4Z"></path><path class="cls-7" d="M642.81,127l0,0c-1.07.76-18.28,12.94-20.43,15.09a2.17,2.17,0,0,0-.24.32,1.8,1.8,0,0,0-.17.25c-.31.45-.71,1.15-1.2,2-.1.18-.2.38-.31.56l-.26.5c-.08.16-.18.34-.28.52a1.71,1.71,0,0,0-.13.23c-.14.29-.31.59-.47.9-.26.47-.54,1-.8,1.51a13.46,13.46,0,0,1-2.24-1.16,13.8,13.8,0,0,1-6-7.4c.17-.21.31-.43.44-.62.36-.49.69-1,1-1.42,0,0,.63-21.44-.31-24.89s2.2-.63,3.47.31,1.89,6.94,2.52,8.52,4.09.61,4.72-.64,8.19-10.09,8.19-10.09,6.62,1.27,8.51,2.85S642.81,127,642.81,127Z"></path><path class="cls-8" d="M642.76,127.05c-1.07.76-18.28,12.94-20.43,15.09a2.17,2.17,0,0,0-.24.32,1.8,1.8,0,0,0-.17.25c-.31.45-.71,1.15-1.2,2-.1.18-.2.38-.31.56l-.26.5a4.3,4.3,0,0,0-.28.52,1.71,1.71,0,0,0-.13.23c-.16.28-.31.59-.47.9-.26.47-.54,1-.8,1.51a13.46,13.46,0,0,1-2.24-1.16l3.06-8.28Z"></path><path d="M533.6,455s-2.1,7.77-2.31,9a72.14,72.14,0,0,0,.21,7.35s14.07,1.89,26,2.31,28.57-.21,29.83-.42-1.68-11.55-4-13.44-14.71-2.1-17.86-2.52a17.58,17.58,0,0,1-6.3-2.52Z"></path><path class="cls-9" d="M561.54,455.31s-18,2.84-31.52.62c0,0-1.56-70.26-2.52-80.66-.13-1.46-.49-4.46-1-8.54v0c-3.22-25-12.51-90.34-12.51-90.34l42.84,2.83s.08,1.53.19,4.14c.64,13.56,2.56,56.45,2,68.33C558.38,365.83,561.54,455.31,561.54,455.31Z"></path><path class="cls-10" d="M526.88,350.71c.24,1.27,0,8.17-.41,16-3.22-25-12.51-90.34-12.51-90.34l42.84,2.83s.08,1.53.19,4.14l-32,3.43S526.25,347.55,526.88,350.71Z"></path><path d="M477.1,451.63c0,.63-3.36,6.3-3.78,9.66s-.42,11.13-.42,11.13,12.6,2.31,17.22,1.89,14.7-.21,14.7-.21.63-18.48-1.68-21S477.1,451.63,477.1,451.63Z"></path><path class="cls-9" d="M523.41,277c-.63,1.26-6,69.63-7.57,77.51S505.13,454,505.13,454s-19.84.33-30.55-1.25c0,0,1.72-60.18,2.62-93.42v0c.31-11.56.52-19.85.52-21.23,0-5.36-1.56-66.17-1.56-66.17l43.25,4.62Z"></path><path class="cls-9" d="M584,165.56s-9.51,10.17-14,21.81a33.91,33.91,0,0,0-2.18,8.65s-17.65-25.64-24-49.59a4.94,4.94,0,0,1-.13-.52c-6-23.6,1.38-35.39,1.38-35.39s16.61,24,19.75,27.51S584,165.56,584,165.56Z"></path><path class="cls-4" d="M570,187.37a33.91,33.91,0,0,0-2.18,8.65s-17.65-25.64-24-49.59a4.94,4.94,0,0,1-.13-.52l7.65-19.61,9.49,26.86Z"></path><path class="cls-9" d="M560.06,281.92s-10.91,1.89-33.39.63-54.4-7.14-54.4-7.14.11-.77.27-2.09c1.13-7.93,5-35.84,5.18-37.83.21-2.31,5.89-60.28,5-68.47-.44-4.31-3.34-17.15-5.64-28.68-2.06-10.32-3.64-19.58-2.55-20.67,2.31-2.31,23.7-11.46,23.7-11.46l32.21-.1s13.19,2.52,14.65,4.41,10.1,24.79,10.31,31.09.62,64.69,1.46,81.28S560.06,281.92,560.06,281.92Z"></path><path class="cls-10" d="M487.18,223.74l.63,49.78-15.27-.2c1.13-7.93,5-35.84,5.18-37.83.21-2.31,5.89-60.28,5-68.47-.44-4.31-3.34-17.15-5.64-28.68l5.77-3.16a170.74,170.74,0,0,1,5.22,29.32C489.39,179.93,487.18,223.74,487.18,223.74Z"></path><rect class="cls-5" x="539.64" y="143.39" width="8.03" height="2.99"></rect><path class="cls-5" d="M479.2,194.54l-.17,6.58-.26,10.43-1,54.63a68.6,68.6,0,0,1-12.79,0c-1-12.11-3.71-44.09-4.05-48.72a81.75,81.75,0,0,1,.71-13.28c.2-1.63.34-2.69.34-2.69v-12.6Z"></path><path class="cls-6" d="M479.2,194.54l-.16,6.57c-3.92,1.37-10.71,3.27-17.4,3,.19-1.63.34-2.69.34-2.69v-12.6Z"></path><path class="cls-7" d="M482.34,301.88l-6.94,3.56s-.92-.23-2.15-.58c-2.11-.61-5.16-1.63-5.82-2.56-1-1.48-4.2-21.23-4.2-21.23s2.1-9.23,2.1-10.28c0-.2-.13-1.91-.36-4.63l.65.07a70.45,70.45,0,0,0,12.14-.05l-.05,2.72,2.41,7.6c.05.18.1.34.15.49s.05.18.08.29l.95,3Z"></path><path class="cls-8" d="M480.06,290.39l-.86-6.92-3.05-8.61-2.6-4.79-.41-2.83a31.28,31.28,0,0,1-7.52-1,70.45,70.45,0,0,0,12.14-.05l-.05,2.72,2.41,7.6c.05.18.1.34.15.49s.05.18.08.29C481,280.2,480.06,290.39,480.06,290.39Z"></path><path class="cls-8" d="M475.4,305.44s-.92-.23-2.15-.58L474,299Z"></path><path class="cls-9" d="M474.58,117.66s-3.84,5.71-6.94,16c-3.36,11.13-9.87,31.08-11.76,60.28,0,0,17.44,3.78,27.73,3.78,0,0,2.1-23.95,1.26-43.69S480.46,120.6,474.58,117.66Z"></path><circle class="cls-11" cx="519.42" cy="168.07" r="2.21"></circle><path class="cls-11" d="M504.82,143.34l-1.58.42c-1.56-6-9.13-36.23-4-39.68a20.79,20.79,0,0,1,4.79-2.23c-.2.66-.42,1.32-.68,2a15.56,15.56,0,0,0-3.2,1.61,1.21,1.21,0,0,0-.39.44,4.33,4.33,0,0,0-.52,1.66C498.26,113.65,501.6,131,504.82,143.34Z"></path><path class="cls-11" d="M540.44,130.07l-1.61.18c0-.18-2-16.67-8.34-23.89a2.16,2.16,0,0,0-.29-.31,10.06,10.06,0,0,0-2.9-2.25c-.44-.21-.88-.42-1.33-.6l.18-1.66a16.17,16.17,0,0,1,1.87.8C537.77,107.2,540.34,129.15,540.44,130.07Z"></path><path class="cls-11" d="M501.13,169.13c-.31-.88-7.34-21.54.86-26.07a5.88,5.88,0,0,1,5.55-.27c5.85,2.64,10.33,14.48,12.39,23.81l-1.59.35c-2.14-9.67-6.51-20.44-11.47-22.68a4.32,4.32,0,0,0-4.09.21c-5.82,3.22-2.06,18.5-.11,24.12Z"></path><path class="cls-11" d="M544.62,133.73a4.31,4.31,0,1,1-4.3-4.3A4.3,4.3,0,0,1,544.62,133.73Z"></path><circle class="cls-5" cx="540.32" cy="133.73" r="2.52"></circle><path class="cls-11" d="M504.51,170.07a2.21,2.21,0,1,1-2.21-2.21A2.2,2.2,0,0,1,504.51,170.07Z"></path><path class="cls-11" d="M502.54,139a1.63,1.63,0,0,1-1.59-1.29c-.7-3.25-2-9.15-2-9.15l3.17-.71s1.33,5.91,2,9.17a1.63,1.63,0,0,1-1.25,1.94A2,2,0,0,1,502.54,139Z"></path><path class="cls-12" d="M530.49,106.36c-.08,7.06-10.24,21.13-10.24,21.13-8.51-3.42-18.07-15.87-21-20a4.39,4.39,0,0,1,.52-1.66l3-.7c.19-.44.39-.89.55-1.35a19.93,19.93,0,0,0,.68-2l.35-1.12c.26-.91.48-1.81.66-2.64a44.58,44.58,0,0,0,.75-4.54H527l-.68,6.15v0l-.2,1.82L526,103.2l-.19,1.76,4.43,1.09Z"></path><path class="cls-13" d="M527,93.54l-.69,6.16h0c-2.94,3.81-7.75,8.42-11.12,7.13-3-1.14-7.3-5.5-10.2-8.75.55-2.61.75-4.55.75-4.55Z"></path><path class="cls-14" d="M537.17,62.21s.42,8.3,0,9.82-.89,7.93-2.28,8.35-1.92-16.7-1.71-18.69,3.57-1.26,3.57-1.26Z"></path><path class="cls-12" d="M535.07,66.2c0,.67-.21,15.76-.21,18.07s-7.56,12.6-11.13,15.54a12.84,12.84,0,0,1-7.15,3.36c-1.89.42-13.65-8.4-15.54-11.34S497.68,74.39,498.52,67s3.78-13.65,11.55-15.54,12.19-3.36,17.65-1.26S535.49,59.69,535.07,66.2Z"></path><path class="cls-15" d="M517.65,71.51a10.2,10.2,0,0,0-1.16-.66,4.85,4.85,0,0,0-2.39-.46,4.57,4.57,0,0,0-2.11.77,4.84,4.84,0,0,0-.8.7c-.26.28-.4.64-.64.91-.55.63.75,1.32.93.42,0-.21.35-.49.5-.64a3.16,3.16,0,0,1,.69-.51,3.33,3.33,0,0,1,1.66-.42,3.23,3.23,0,0,1,1.62.54,9.61,9.61,0,0,1,.88.66,1.89,1.89,0,0,0,1.06.62.71.71,0,0,0,.76-1C518.51,72,518,71.77,517.65,71.51Z"></path><path class="cls-15" d="M530.5,73.43a4.44,4.44,0,0,0-.69-.6,4.74,4.74,0,0,0-1.78-.7,4.69,4.69,0,0,0-1.79,0c-.62.13-1.58.36-1.78,1.05a.61.61,0,0,0,.48.83,1.43,1.43,0,0,0,.9-.2l.35-.13.15-.05.11,0a3.72,3.72,0,0,1,1.36-.07,3.76,3.76,0,0,1,1.31.41,3.07,3.07,0,0,1,.58.33,2.77,2.77,0,0,0,.64.5.51.51,0,0,0,.69-.54A1.56,1.56,0,0,0,530.5,73.43Z"></path><path class="cls-15" d="M528.35,79a.41.41,0,0,1-.05.09l.1-.12v0S528.37,78.94,528.35,79Z"></path><path class="cls-15" d="M528.68,78.11a1.44,1.44,0,0,0-2.16-1.24,1.41,1.41,0,0,0-.52.51,1.45,1.45,0,0,0-.19.73,1.52,1.52,0,0,0,.21.78h0l.22.28h0a1.93,1.93,0,0,0,.28.22h0a1.43,1.43,0,0,0,.34.14,1.35,1.35,0,0,0,.72,0,1.32,1.32,0,0,0,.57-.33h0s0-.11.09-.16l.1-.13h0s0,0,0,0h0v0s0,0,.05,0A1.39,1.39,0,0,0,528.68,78.11Z"></path><path class="cls-15" d="M516.26,76.86l-.11-.27-.18-.23a.86.86,0,0,0-.36-.23h-.05l0,0-.2-.09c-.08,0-.14-.1-.23-.13l-.38,0a1.46,1.46,0,0,0-.73.2l-.29.22a1.48,1.48,0,0,0-.37.64,1.14,1.14,0,0,0,0,.58,1.11,1.11,0,0,0,.17.53,1.13,1.13,0,0,0,.37.41,1.14,1.14,0,0,0,.5.26,1,1,0,0,0,.57,0,1.07,1.07,0,0,0,.54-.17,1,1,0,0,0,.4-.37.7.7,0,0,0,.09-.17l0,0a.85.85,0,0,0,.23-.37.46.46,0,0,0,.08-.28A.86.86,0,0,0,516.26,76.86Z"></path><path class="cls-13" d="M524.49,85.66a1.93,1.93,0,0,0-.83-1.25c-.27-.2-.82-.46-.85-.83a1.24,1.24,0,0,1,.11-.42c.05-.19.09-.39.13-.59s.15-.69.22-1a6.6,6.6,0,0,0,.2-2.61.88.88,0,0,0-1.6-.21,10.23,10.23,0,0,0-.56,4,2.43,2.43,0,0,0,.42,1.57,3.17,3.17,0,0,0,.93.74c.3.18.76.42.81.8s-.44,1-.78,1.19c-.78.57-2.08,1-2.86.22a.41.41,0,0,0-.64.49,2.39,2.39,0,0,0,3.3.75C523.51,88,524.67,86.92,524.49,85.66Z"></path><path class="cls-16" d="M523.25,91.49a6.43,6.43,0,0,1-8.88-.43c-.19-.2-.54.07-.39.3a6.3,6.3,0,0,0,4.62,2.87A6,6,0,0,0,523.8,92,.39.39,0,0,0,523.25,91.49Z"></path><path class="cls-5" d="M530.49,106.36c-.08,7.06-10.24,21.13-10.24,21.13-8.51-3.42-18.07-15.87-21-20a4.39,4.39,0,0,1,.52-1.66l3-.7c.19-.44.39-.89.55-1.35a19.93,19.93,0,0,0,.68-2l.35-1.12a17.3,17.3,0,0,0,11.1,4.41,16.8,16.8,0,0,0,10.69-3.6L526,103.2l-.19,1.76,4.43,1.09Z"></path><path class="cls-6" d="M515.45,105.14a15,15,0,0,1-3.72-.49,13.93,13.93,0,0,0,3.49,2.19c2.25.86,5.14-.91,7.69-3.31A17.89,17.89,0,0,1,515.45,105.14Z"></path><path class="cls-5" d="M533.84,86.86s-.24.5-.63,1.28c-1.11,2.2-3.4,6.61-4.8,8.06s-4.25,5.6-8.09,7.29a8.5,8.5,0,0,1-3.62.74c-5.71-.18-12.24-7.44-13.43-9.3,0,0,2.31-6.18,2.41-9.85,0,0,7.36-3.58,14-2.84S533.84,86.86,533.84,86.86Z"></path><path class="cls-5" d="M506,86.26c-1.44-2.81-7.65-8-7.71-8l.51-.62c.26.21,6.41,5.3,7.93,8.26Z"></path><path class="cls-5" d="M503.27,94.93a35.16,35.16,0,0,1-5.37-9.26l.76-.29a34.38,34.38,0,0,0,5.91,9.4Z"></path><path class="cls-17" d="M539.51,67.85a23.7,23.7,0,0,1-4.63,13c1-4.9.93-8.63.13-11.41a9.64,9.64,0,0,0-5-6.29h0c-3.88-2-9-1.5-12.7-.46-7.8,2.22-11.64,6.63-14.05,13.5a36.37,36.37,0,0,0-1.64,11v0a51.59,51.59,0,0,0,.18,5.73c-4.19-1.55-6.84-5-9.15-11a18.23,18.23,0,0,1-.8-2.9c-1.46-7.3-1-20.29,3.65-25.68,5-5.8,17.79-11.07,28.39-7.57a19.91,19.91,0,0,1,2.06.8,26.89,26.89,0,0,1,5.77,3.51,0,0,0,0,0,0,0C537.94,55.13,539.67,61.85,539.51,67.85Z"></path><path class="cls-18" d="M533.21,88.14c-1.11,2.2-3.4,6.61-4.8,8.06s-4.25,5.6-8.09,7.29c-2.72-.27-5.46-.84-5.46-.84l-2.64-2.35s4.09,1.08,5.83,0c0,0,6.69-6.44,7.16-9.31a11.77,11.77,0,0,0-.94-5.94S531.74,87.07,533.21,88.14Z"></path><path class="cls-14" d="M539.51,67.85a23.7,23.7,0,0,1-4.63,13c1-4.9.93-8.63.13-11.41l.23-2.53c1.84.25,2.57-3.15,1.52-6.51s-4.72-9.78-5-10.29C537.94,55.13,539.67,61.85,539.51,67.85Z"></path><path class="cls-19" d="M523.9,45.79c-11.24-1.08-21.67,2.52-27.48,9.18S491.86,79,491.86,79c-1.46-7.3-1-20.29,3.65-25.68C500.54,47.56,513.3,42.29,523.9,45.79Z"></path><path class="cls-19" d="M530,63.16c-3.88-2-9-1.5-12.7-.46-7.8,2.22-11.64,6.63-14.05,13.5a36.37,36.37,0,0,0-1.64,11c-.08-.52-.9-6.81.18-9.59S505.53,68.46,508,66s6.72-5.23,9.34-5.36S526.88,60.6,530,63.16Z"></path><path class="cls-20" d="M228.43,60.7c.26-.9.48-1.68.67-2.27,3.12-9.86,5.16-33.84-6.4-36.93-13.86-3.71-11.37,18.24-11.55,24.41-.22,7.14-.07,14.79,3.44,21.15,1.33,2.39,4.39,6,7.26,5.43C225,71.92,227.17,65,228.43,60.7Z"></path><path class="cls-9" d="M165.57,225.14s5-54.55,5-70.4,13.66-65.22,13.66-65.22l8.92-2.84,25.36,1.15,10.87-1.78,9.25,6,8.82,131.06s-5.25,3.83-11.13,4.33S173,229.69,165.57,225.14Z"></path><path class="cls-12" d="M218.51,101.18c-3.61,4.56-11,8.5-14.65,6a17.91,17.91,0,0,1-6.77-10.85c-.78-3.94.31-11,.31-11s.26-1.09.57-2.67c.08-.41.16-.86.24-1.34a7.88,7.88,0,0,0,.16-.87,38.51,38.51,0,0,0,.61-6c0-4.26,20.33-1.11,20.33-1.11l.68,4.12.56,3.31.22,1.43.43,2.49S222.14,96.61,218.51,101.18Z"></path><path class="cls-13" d="M220,77.41c-2.44,3-7.08,8.14-10.3,9.59-3.52,1.58-8.43-2.65-11.32-6.62a38.51,38.51,0,0,0,.61-6c0-4.26,20.33-1.11,20.33-1.11Z"></path><path class="cls-12" d="M190.12,45.45s0,18.7,1.93,23.21,10.32,13.55,13.22,14.19S218.81,78,223.65,70.28s3.87-24.18,3.55-28.7S210.75,26.11,205,28,190.76,30,190.12,34.17,190.12,45.45,190.12,45.45Z"></path><path class="cls-15" d="M200.28,53.54a1,1,0,0,0-.38-.38,1,1,0,0,0-1.06,0l0,0h0a1.1,1.1,0,0,0-.4.4l-.06.08a1.09,1.09,0,0,0-.15.56l0,.29a1.16,1.16,0,0,0,.29.49.79.79,0,0,0,.35.23,1,1,0,0,0,.86,0,.79.79,0,0,0,.35-.23,1.16,1.16,0,0,0,.29-.49l0-.08a1.55,1.55,0,0,0,0-.37A1.08,1.08,0,0,0,200.28,53.54Z"></path><path class="cls-15" d="M214,53.51l-.13-.31-.21-.27a1.07,1.07,0,0,0-.42-.28.69.69,0,0,0-.34-.09,1.06,1.06,0,0,0-.53,0l-.32.14-.27.21a1.18,1.18,0,0,0-.23.35l0-.07,0,.07,0,0a1.24,1.24,0,0,0-.17.63.93.93,0,0,0,0,.33,1.15,1.15,0,0,0,.32.54A.6.6,0,0,0,212,55a1,1,0,0,0,.41.11.55.55,0,0,0,.18.06h.16l0,0a.59.59,0,0,0,.23,0,1,1,0,0,0,.49-.16l.27-.2.21-.27A1,1,0,0,0,214,54,1,1,0,0,0,214,53.51Z"></path><path class="cls-15" d="M202,49.3c-.27-.54-1.09-.49-1.61-.48a14.17,14.17,0,0,0-1.6.08,7.42,7.42,0,0,0-3,1c-.31.19-.11.74.25.61a10.76,10.76,0,0,1,2.85-.62,6,6,0,0,1,1.4,0c.23.05.47.12.7.16a1,1,0,0,0,.93-.16A.53.53,0,0,0,202,49.3Z"></path><path class="cls-15" d="M216.07,49.49a5.8,5.8,0,0,0-2.48-.83,5.9,5.9,0,0,0-1.26,0c-.23,0-.47.07-.7.12l-.3.08-.15.05s-.15,0-.09,0a.68.68,0,1,0,.48,1.16,2.75,2.75,0,0,1,1-.35,5.11,5.11,0,0,1,1-.14,4.94,4.94,0,0,1,2.18.43C216.12,50.23,216.44,49.71,216.07,49.49Z"></path><path class="cls-5" d="M214.05,69a9.34,9.34,0,0,1-7.42,4.27,9,9,0,0,1-7.65-3.7,60.85,60.85,0,0,1,7-.42l4.15-.08C210.63,69.09,213.85,69.34,214.05,69Z"></path><path class="cls-13" d="M205.73,64.33c-.71-.26-1.86-.65-2.14-1.44s.54-1.56,1.13-2a2,2,0,0,0,.87-1.06,4.55,4.55,0,0,0-.24-1.71,8.56,8.56,0,0,1-.11-1.82c0-.66.21-1.34.18-2a.64.64,0,0,0-1.26-.17,6.79,6.79,0,0,0-.11,2.16c0,.73.07,1.45.12,2.18a1.65,1.65,0,0,1,0,.8,1.06,1.06,0,0,1-.44.4,3.28,3.28,0,0,0-1.09,1.22,2.6,2.6,0,0,0,.4,2.85,3.87,3.87,0,0,0,2.67,1C206,64.82,206,64.41,205.73,64.33Z"></path><path class="cls-15" d="M203.13,52.05a6.2,6.2,0,0,0-3.51-2.41,7,7,0,0,0-7.77,2.83,6.51,6.51,0,0,0,.42,7.05,7.15,7.15,0,0,0,3.14,2.37,6.75,6.75,0,0,0,7.26-2.16,6.88,6.88,0,0,0,1.2-6.1A5.09,5.09,0,0,0,203.13,52.05Zm-1,6.21a5.94,5.94,0,0,1-5.39,2.53,5.32,5.32,0,0,1-4.3-3.81,4.76,4.76,0,0,1,1.82-5.19,5.67,5.67,0,0,1,5.72-.43c2.31,1.2,3.93,4.55,2.21,6.83Z"></path><path class="cls-15" d="M207.87,52.37c-.23-.1-.46-.2-.7-.28a4.94,4.94,0,0,0-1.51-.3,5,5,0,0,0-2.85.77.37.37,0,0,0,.28.67c.44-.09.87-.23,1.32-.29a6.12,6.12,0,0,1,1.21,0,8,8,0,0,1,1.2.12,5.31,5.31,0,0,1,.65.19,1,1,0,0,0,.69.13.4.4,0,0,0,.28-.49A.92.92,0,0,0,207.87,52.37Z"></path><path class="cls-15" d="M227.87,49a18.3,18.3,0,0,0-4.74,1.28c-1.29.49-2.55,1-3.78,1.61A4.5,4.5,0,0,0,216,49.6a11.12,11.12,0,0,0-4.7.23,6.29,6.29,0,0,0-2.79,9.69,7.15,7.15,0,0,0,3.14,2.37,6.75,6.75,0,0,0,7.26-2.16,6.85,6.85,0,0,0,.87-7c1.28-.31,2.54-.68,3.79-1.11a18.12,18.12,0,0,0,4.45-2C228.32,49.47,228.26,49,227.87,49Zm-9.46,9.29a5.33,5.33,0,0,1-7.31,1.86c-2.4-1.43-3.49-4.83-1.83-7.22A5.85,5.85,0,0,1,216,51,5,5,0,0,1,218.41,58.27Z"></path><path class="cls-15" d="M192.25,52.7c-.22-.14-.44-.3-.67-.42l-.68-.35-.69-.35-.32-.18-.19-.1a1.17,1.17,0,0,0-.45-.13.7.7,0,0,0-.64.43.73.73,0,0,0,.14.76,2.29,2.29,0,0,0,.81.45,8,8,0,0,0,.85.36,6.54,6.54,0,0,0,.75.24,6.38,6.38,0,0,0,.86.13.46.46,0,0,0,.44-.33A.49.49,0,0,0,192.25,52.7Z"></path><path d="M226.08,454.36a54.41,54.41,0,0,0-3.31,6.77c-.47,1.74-.32,14-.32,14s19.38,2.37,30.88-.15c0,0-.79-13.87-1.26-16.07s-3.15-6.77-3.15-6.77Z"></path><path d="M199.77,454.05s1.26,20.63.79,20.79S181,475,181,475l-.94-2.52-1.58,2.67s-35.6,0-36.86-.15,1.89-11,5.36-12.45,19.21-3.62,19.21-3.62l6.31-7.56Z"></path><path class="cls-21" d="M206.43,227.43s0,.8-.1,2.28c-.29,6.81-1.18,27.89-2.14,50.64v0c0,.42-.05.85-.07,1.25v0c-1,23.36-2.08,48.21-2.65,61-1.29,28.14,0,111.75,0,111.75s-17.66,3.78-31.53-.85c0,0-3.19-114-3.93-152.92-.09-6.28-.14-10.59-.11-12.17.26-11.35,0-59.47,0-59.47Z"></path><path class="cls-21" d="M253.54,455.2s-1,.19-2.77.44a90.64,90.64,0,0,1-25.24-.26c-1.14-.16-2.32-.38-3.5-.6,0,0-7.56-84-8-93.26-.18-3.83-3-27.14-6.3-53.09-1.17-9.27-2.39-18.88-3.56-28.06v0c-.07-.45-.13-.91-.2-1.38-2.49-19.52-4.75-36.9-5.76-44.65-.13-1-.25-1.91-.33-2.59-.14-1.11-.23-1.69-.23-1.69l1.41-2.33,7.25,2,.1-2.28h6.46l-.66,2,29.12-1.12s0,.57.06,1.65c0,1.33.12,3.46.2,6.23.28,8.24.75,22.14,1.3,37.78,0,.49,0,1,.05,1.45,0,.31,0,.6,0,.91.41,11.92.87,24.75,1.32,36.76.25,6.95.49,13.64.73,19.73.61,15.8,1.13,27.65,1.36,29.92C247.24,370.76,253.54,455.2,253.54,455.2Z"></path><path class="cls-5" d="M192.84,190.12c-.18,1.76-.24,4.45-.24,7.72,0,13.25,1,36.2.87,46.47-.21,12.82-8.41,65.54-8.41,65.54-17.44,1.47-34.87-4.2-34.87-4.2S162,225.2,162.38,210.29c.12-3.9.38-9.55.77-16.29.23-4.07.49-8.53.8-13.24,1.1-17.25,2.63-37.75,4.1-54.07,2.52-28.15,16.18-37.17,16.18-37.17a163.06,163.06,0,0,1,4,23.53c1,12.17,8,27.72,8,27.72s-1.32,21.21-2.36,36.28C193.43,182.81,193.07,187.68,192.84,190.12Z"></path><path class="cls-6" d="M193.83,177.05c-.4,5.76-.76,10.63-1,13.07-.18,1.76-.24,4.45-.24,7.72L163.15,194c.23-4.07.49-8.53.8-13.24Z"></path><path class="cls-5" d="M261.31,306.5a78.82,78.82,0,0,1-17,6.64A135,135,0,0,1,223,317c-3.21.33-5.16.41-5.16.41l-1-8c-1.42-11.77-3.93-32.7-4.07-35.11-.12-1.87-.18-22.29-.52-42.94,0-.66,0-1.29-.05-1.93,0-.45,0-.91,0-1.35,0-.73,0-1.45-.05-2.18-.16-8.46-.39-16.68-.7-23.41,0-.87-.08-1.72-.13-2.54-.18-3.54-.39-6.56-.63-8.82s-.44-4.51-.62-7a6.44,6.44,0,0,0-.05-.75c-.15-2.36-.29-4.81-.41-7.31-.14-3.48-.27-7-.36-10.5,0-1.74-.08-3.45-.11-5.09-.21-10.43-.15-18.7-.15-18.7a.06.06,0,0,1,0,0h0a.09.09,0,0,0,0-.06c5.57-6.81,11.65-19.88,15.84-29.74.53-1.27,1-2.48,1.5-3.62,2.23-5.42,3.61-9.19,3.61-9.19L232.69,97l4.65-3.87L238.63,92,246,94.77s-.06,1.15-.16,3.1v.31c-.36,6.82-1.12,22.31-1.58,32.74-.18,4-.31,7.26-.36,9-.05,2.05.41,7.73,1.16,15.32.1,1.14.23,2.33.34,3.55,0,.23,0,.47.08.7.1,1.07.21,2.18.31,3.32.08.62.15,1.25.21,1.9l.15,1.45c.6,6,1.28,12.46,1.94,19,.19,1.86.39,3.73.57,5.58.08.74.14,1.47.22,2.2.08.9.18,1.78.26,2.65.44,4.4.85,8.66,1.21,12.65.68,7.59,1.19,14.12,1.33,18.48.07,2.18.26,5,.51,8.09.23,2.52.5,5.31.81,8.25.13,1.22.26,2.46.41,3.73.11,1,.23,2.08.36,3.14,0,.25,0,.49.08.75.14,1.3.31,2.64.47,4,.1.83.2,1.66.31,2.51.15,1.22.31,2.45.46,3.69s.3,2.47.47,3.73c.27,2.15.55,4.31.83,6.44.05.33.08.64.13,1,.13,1,.27,2.06.4,3.08C259.16,292,261.31,306.5,261.31,306.5Z"></path><rect class="cls-22" x="221.27" y="144.07" width="10.24" height="2.95"></rect><path class="cls-6" d="M246.35,206.78l-16-5.73,12.14,11.34-31-9.85c0-.87-.08-1.72-.13-2.54-.18-3.54-.39-6.56-.63-8.82s-.44-4.51-.62-7a6.44,6.44,0,0,0-.05-.75c-.15-2.36-.29-4.81-.41-7.31-.14-3.48-.27-7-.36-10.5l7.43-3.45,18.47-8.59L239.1,128l.08,0,1.94,1.12,3.11,1.79c-.18,4-.31,7.26-.36,9-.05,2.05.41,7.73,1.16,15.32.1,1.14.23,2.33.34,3.55,0,.23,0,.47.08.7.1,1.07.21,2.18.31,3.32.08.62.15,1.25.21,1.9l.15,1.45c.6,6,1.28,12.46,1.94,19,.19,1.86.39,3.73.57,5.58.08.74.14,1.47.22,2.2.08.9.18,1.78.26,2.65.44,4.4.85,8.66,1.21,12.65Z"></path><path class="cls-6" d="M236.32,90.57,238.63,92s-1.47,20.16-5,27.72l-3.79,1,1.26,3.57S219.09,137,209,141.82c0,0,11.34-11.13,16.17-26.47S236.32,90.57,236.32,90.57Z"></path><path class="cls-5" d="M229.38,86.05l8.41,3.89s-2.52,20.16-6.1,29l-5,.42,1.89,4.41A109.37,109.37,0,0,1,209,141.82S230.22,104.43,229.38,86.05Z"></path><path class="cls-6" d="M184.17,91.72s-3.94,10.87-3.94,18.59,5.78,25.15,16,30.46L190,123.23l-1.73-20.48Z"></path><path class="cls-5" d="M196.2,140.77s-10.08-31.51-3-54.09l-8.92,2.84s-4.21,15.12-2.53,23.94l4.63,2.52-3.79,2.31S187.17,133.42,196.2,140.77Z"></path><path class="cls-5" d="M256.49,272c-3.18,1.21-9.41,3.5-11.56,3.67a9,9,0,0,1-2-.15,49.9,49.9,0,0,1-7.8-2.36v0s-1.94-8.64-3.52-19.14c-.8-5.19-1.5-10.86-1.84-16.15,0,0,5.76-.75,11.82-1.56,3.89-.52,7.89-1.07,10.55-1.48.23,2.52.5,5.31.81,8.25.13,1.22.26,2.46.41,3.73.11,1,.23,2.08.36,3.14,0,.25,0,.49.08.75.14,1.3.31,2.64.47,4,.1.83.2,1.66.31,2.51.15,1.22.31,2.45.46,3.69s.3,2.47.47,3.73c.27,2.15.55,4.31.83,6.44C256.41,271.32,256.44,271.63,256.49,272Z"></path><path class="cls-5" d="M158.58,235.41h17.07s-3.17,28.93-5.82,33-13.67,3.08-13.67,3.08Z"></path><path class="cls-6" d="M256.89,275c-5,.7-12.53,1.69-13.64,1.42l-.26-.07c-1.87-.44-6.33-1.48-7.83-3.27v0c-1.57-1.88-3.67-19.74-3.67-19.74l.15.6c.75,3.06,4.12,16.77,4.69,17.89.44.86,4.26,1.73,6.59,2.18,1.06.21,1.81.33,1.81.33l8.19-4.82-2.1-10.92-5.05-2.1,6.93-6.94L253,243c.13,1.22.26,2.46.41,3.73.11,1,.23,2.08.36,3.14,0,.25,0,.49.08.75.14,1.3.31,2.64.47,4,.1.83.2,1.66.31,2.51.15,1.22.29,2.45.46,3.69s.3,2.47.47,3.73q.41,3.24.83,6.44c.05.33.08.64.13,1C256.62,273,256.76,274,256.89,275Z"></path><path class="cls-6" d="M173.3,250.62s-1.26,16.8-3.57,18.9-13.57,1.93-13.57,1.93l.34-2.14s10.08,1.47,12-1.47S173.3,250.62,173.3,250.62Z"></path><polygon class="cls-6" points="167.84 235.08 174.35 235.71 174.77 242.22 175.61 234.24 167.84 235.08"></polygon><path class="cls-21" d="M202.92,121.18s-7.77,38-9,54.52c0,0,.65,23.46,5.69,33.23,0,0,9.14-25.38,9.4-34.19l-1.68-53.56S204.65,119.45,202.92,121.18Z"></path><path class="cls-21" d="M200.39,107.94s1,9,2.53,13.24a9,9,0,0,1,4.41,0s5-8.51,5.51-12.6-5.2-5.2-5.2-5.2L201,105Z"></path><path class="cls-5" d="M207.64,103.38a41.25,41.25,0,0,1,5.68,8.19s15.12-9.76,16.06-25.52l-8.47-3.15S219,96.13,207.64,103.38Z"></path><path class="cls-5" d="M207.64,103.38s-5.67,1.26-8,8.19c0,0-7-9.65-6.46-24.89l4.75-3.78S196.93,98,207.64,103.38Z"></path><path class="cls-5" d="M211.1,183.25s-5.63.9-13,2c-8,1.24-18.18,2.72-25.41,3.6a94.31,94.31,0,0,1-24.77-.21s-6.94-12.39-7.36-16.39,17.85-67,21.84-73.52c0,0,11.76-6.72,21.85-9.23a88.85,88.85,0,0,0-11.74,22.37,59.06,59.06,0,0,0-1.92,7c-3.14,15.55-4.83,50.2-4.83,50.2s36.18-3.89,41.42-4.93l1.76,8.53Z"></path><path class="cls-6" d="M152.93,181.94s24.16-.36,40.12-3.78l5.32,3.78S166.78,185.51,152.93,181.94Z"></path><path class="cls-6" d="M211.1,183.25s-5.63.9-13,2l-5-7.11,12.39-6.51,3.48,1.07Z"></path><path class="cls-6" d="M172.49,111.89a59.06,59.06,0,0,0-1.92,7c-3.14,15.55-4.83,50.2-4.83,50.2s-8.19-.84-12.81,0l6.41-4.46-3.26-11.72,5.46-.4s1.28-31.5,10.87-45.65Z"></path><path class="cls-7" d="M202,161.74l-6.87,11.57-.85,1.43s-10.08-3.3-13.71-4.41a65.64,65.64,0,0,0-10.4-1.62,2,2,0,0,1-.32,0s1.06-1.08,2.67-2.49c2.75-2.43,7.09-5.91,10.58-6.89,4.57-1.32,14.58,1.22,17.84,2.14C201.58,161.62,202,161.74,202,161.74Z"></path><path class="cls-23" d="M200.91,161.45l-.52.86s-9.3-3-13.72-2.83-14.18,6.72-14.18,6.72c2.75-2.43,7.09-5.91,10.58-6.89C187.64,158,197.65,160.53,200.91,161.45Z"></path><path class="cls-8" d="M196.45,164.66l-1.35,8.65-.84,1.43s-10.08-3.3-13.71-4.41a66,66,0,0,0-10.4-1.63,67.17,67.17,0,0,1,8-2.15c3.14-.47,11.65.47,11.65.47Z"></path><path class="cls-5" d="M258.16,102.76c-3.15-4.22-12.19-8-12.19-8-2.31,2.52-6.72,16.18-6.92,27.1-.14,7.21,1.47,23.93,2.56,34.46.57,5.44,1,9.23,1,9.23a96.24,96.24,0,0,1-15.43-1.47c-12.05-1.92-24.27-5-24.27-5s-6.73,2.72-8.4,5.24-1.47,13.87-1.47,13.87,9.65,3.35,21.85,7.76,40.53,8.62,43,7.15,9.66-10.71,9.66-11.77S261.31,107,258.16,102.76Z"></path><path class="cls-6" d="M251.05,155.26s5.11,1.68,5.59,2.78-6.52,9.46-6.52,9.46l-2-7.25Z"></path><path class="cls-6" d="M217.41,184.72s32.61,1,36.71,0,11-3.2,11-3.2-4.25,7.09-4.88,7.09-10.55.95-10.55.95l7.61.78-2.1,1.1S226.39,188.55,217.41,184.72Z"></path><path class="cls-6" d="M240.1,113.94s1.41-12,6.61-16.7C246.71,97.24,239.47,101.18,240.1,113.94Z"></path><path class="cls-11" d="M198.21,81.25c-.08.48-.16.93-.24,1.34-18.32,7.63-15.47,47-15.43,47.37l-1.14.08C181.27,128.32,178.4,88.5,198.21,81.25Z"></path><path class="cls-11" d="M224.44,126.3l-1.13-.15c0-.31,3.91-31.25,2.69-36.28a11.63,11.63,0,0,0-5.23-7.72l-.22-1.43.71.39c3,1.77,4.88,4.54,5.85,8.48C228.38,94.83,224.6,125,224.44,126.3Z"></path><circle class="cls-11" cx="223.4" cy="129.64" r="4.1"></circle><path class="cls-5" d="M225.71,129.64a2.31,2.31,0,1,1-2.31-2.31A2.32,2.32,0,0,1,225.71,129.64Z"></path><path class="cls-11" d="M176.68,149.4c-.07-.54-1.69-13.39,2.09-18.16a4.46,4.46,0,0,1,3.14-1.8,7,7,0,0,1,5.69,2.39c4.41,5.11,2.57,16.58,2.49,17.07l-1.12-.19c0-.11,1.83-11.44-2.24-16.14a5.71,5.71,0,0,0-4.75-2,3.42,3.42,0,0,0-2.32,1.37c-3.48,4.4-1.87,17.19-1.85,17.31Z"></path><path class="cls-11" d="M179.13,149.33a1.89,1.89,0,1,1-1.89-1.89A1.89,1.89,0,0,1,179.13,149.33Z"></path><circle class="cls-11" cx="189.32" cy="149.12" r="1.89"></circle><path class="cls-11" d="M181.91,124.5a1.22,1.22,0,0,1-1.21-1.1c-.32-3.45.49-11.36.53-11.69a1.22,1.22,0,1,1,2.42.25c0,.08-.82,8-.52,11.21a1.23,1.23,0,0,1-1.1,1.33Z"></path><path class="cls-7" d="M251.75,163.14a13.12,13.12,0,0,1-.62,2.05c-.47,1.24-1,2.31-1,2.31a26.52,26.52,0,0,0-7.8-2,65.25,65.25,0,0,1-7.32-.37h0c-2.39-.24-4.92-.57-7.47-1l-1.13-.18c1.6-1.24,8.75-6.51,14.9-8l.06,0c7-1.62,8.45-1.31,9.1-1.13a1.32,1.32,0,0,1,.95,1.2c0,.13,0,.26,0,.41a4,4,0,0,1-.18,1.05c-.15.49-.31.88-.31.88v0C251.05,158.71,252.07,161.43,251.75,163.14Z"></path><path class="cls-23" d="M251.39,156.09c-2,0-10.09.34-12.29,1-2,.63-8.86,5.25-11.59,7.06l-1.13-.18c1.6-1.24,8.75-6.51,14.9-8l.06,0c7-1.62,8.45-1.31,9.1-1.13A1.32,1.32,0,0,1,251.39,156.09Z"></path><path class="cls-8" d="M251.25,157.55c-.15.49-.31.88-.31.88v0a21.89,21.89,0,0,0-4.54.7c-1.49.48-3.5,1.35-3.75,1.44a13.19,13.19,0,0,1,4.9-2.6A36.21,36.21,0,0,1,251.25,157.55Z"></path><path class="cls-8" d="M251.13,165.19c-.47,1.23-1,2.31-1,2.31a26.51,26.51,0,0,0-7.79-2,67.77,67.77,0,0,1-7.33-.37,75.66,75.66,0,0,0,8.35-1.68A31,31,0,0,1,249,162.3l.63.31-3.68,2.1s1.69,0,2.95.1A16.28,16.28,0,0,1,251.13,165.19Z"></path><path class="cls-5" d="M460.92,260.49h-.08l-6-.65-13-1.44-.39-13.12-1.92-65.43-7-39.28-3.09-17.44,3.78-10.92s12.6,13.23,14.08,14.7a22.86,22.86,0,0,1,3.56,8.41c2.23,10,4.21,19.06,5.88,28.35.59,3.23.94,12.9,1.06,13.86C458.39,182.57,460.92,260.49,460.92,260.49Z"></path><path class="cls-6" d="M460.84,260.48l-6-.65c-4.94-3.65-9.61-9.23-13.38-14.56l-1.92-65.43-7-39.28.05-24.58,14.93,19.2,4.8,12.95c1.25,6.26,2.54,12.87,3.55,18.28L455,179.62l-1.88,9.89,2.74,23.94Z"></path><path class="cls-21" d="M393.92,108.13s-11.71-58.72,23.84-57.94-8.45,55.92-8.45,55.92Z"></path><polygon class="cls-21" points="487.61 228.56 483.46 265.72 462.73 263.41 442.91 261.19 429.19 259.66 430.67 246.45 433.34 222.5 456.88 225.12 487.61 228.56"></polygon><polygon class="cls-24" points="462.73 263.41 442.91 261.19 430.67 246.45 433.34 222.5 456.88 225.12 456.93 225.2 462.73 263.41"></polygon><rect class="cls-5" x="467" y="231.96" width="13.27" height="26.02" transform="translate(30.07 -50.99) rotate(6.36)"></rect><path class="cls-7" d="M465.59,263.59l-.08.19,0,.05c-.77.91-5.42,2-7.28.56-2.05-1.58,0-8.05,0-8.05a13.28,13.28,0,0,1,3-.11,2.65,2.65,0,0,1,1.87.75A21.38,21.38,0,0,1,465.59,263.59Z"></path><path class="cls-8" d="M465.59,263.59l-.08.19,0,.05c-.77.91-5.42,2-7.28.56-2.05-1.58,0-8.05,0-8.05a13.28,13.28,0,0,1,3-.11c.08,1.4.31,3.65.54,5.62Z"></path><path d="M393.28,470.27a30,30,0,0,1-1.41,5.05s-21.1,2.36-22.21.62,0-10.39,0-10.39l4.72-11.18,1.58,0,15.74.26,1,0S393.28,469.17,393.28,470.27Z"></path><path class="cls-12" d="M391.7,454.66c0,2.33-.52,13.36-1.09,14.19s-13.86.15-16.22-.63c-2-.68,1-10.58,1.57-13.82Z"></path><path d="M473.32,473.27c-.63.63-9.46.94-16.23.63s-29.62.31-29.62.31l-3.31-3.3s.33-5.83.64-7.73c.11-.74.35-2.43.62-4.25.39-2.87.79-6,.79-6l15.29-.31c1.41,4.72,10.24,10.87,15.27,11.65.42.07.94.16,1.53.28,3.73.76,10.33,2.47,13.58,3.32a2.55,2.55,0,0,1,1.91,2.56A6.26,6.26,0,0,1,473.32,473.27Z"></path><path class="cls-12" d="M458.3,464.56c-1.48,1.42-4.24,3.16-8.92,3.35-8,.31-21.12-5.35-22.53-7.24-.39-.54-.91-1.14-1.43-1.74.39-2.87.79-6,.79-6l15.29-.31c1.41,4.72,10.24,10.87,15.27,11.65C457.19,464.35,457.71,464.44,458.3,464.56Z"></path><path class="cls-21" d="M453.79,241.06v93.26s-2.85,28.68-4.41,37.5-6.63,81.91-6.63,81.91c-7.55,1.26-18.26.64-18.26.64s-1.91-55.46-2.53-69.95S423.54,335,423.54,335l-2.41-39.88-.13-2.34a0,0,0,0,1,0,0l-1.2-19.84-.36-6,.31-23.94,7-.39Z"></path><path class="cls-21" d="M422.94,281.54l0,.08c-.61,3.65-1.27,7.38-1.92,11.07a0,0,0,0,0,0,0c-3.71,20.78-7.71,41-8.49,44.44-1.58,6.91-18.59,118.45-18.59,118.45-6,1.26-22.37-.31-22.37-.31.94-19.86,9.77-119.72,9.77-119.72,0-4.72.26-13.43.63-23.43.93-24.77,2.53-57.54,2.53-57.54l6.91-13.24s29.83-5.64,35.38,1.18a3.82,3.82,0,0,1,.86,2C428.17,248.61,425.89,264.22,422.94,281.54Z"></path><path class="cls-9" d="M444.88,217.88c.69,11.9.72,23.42-2,26.56a2.23,2.23,0,0,1-1.45.83c-2.27.26-6.4.49-11.22.67-13,.47-30.86.69-30.86.69l-1.22-136.74,29.51-.43,17.56,50.32,1.48,4.25s-2.13,18.33-3.54,23.41C442.43,190,444.09,204.19,444.88,217.88Z"></path><path class="cls-5" d="M419.54,229c-.21,9-1.89,71-1.89,71s-11.75-.64-19.11-.85-29.19-5.88-29.19-5.88,3.14-9,6.3-19.53c1.55-5.19,5.31-25.8,8.73-45.34,1-5.61,1.93-11.13,2.78-16.18.65-3.79,1.25-7.32,1.78-10.41,1.25-7.43,2.05-12.29,2.05-12.29-3.1-9.43-6.55-23.84-9.51-37.2-3.89-17.61-6.89-33.39-6.89-33.39l15-9,13.54.84,18.59,54.68s-1.58,20.94-2.21,26c-.08.61-.13,1.48-.16,2.56C419.1,201.88,419.72,221.05,419.54,229Z"></path><path class="cls-6" d="M408.14,244.11l-2.88,22.32s-14.65,3.15-16,2.83-3.86-9.14-3.86-9.77,3-16.06,3-16.06l-1.74,15.91,3,8.35L403.84,265Z"></path><path class="cls-6" d="M393.45,242.48s8.5.16,12.28,1.26A22.79,22.79,0,0,0,393.45,242.48Z"></path><path class="cls-6" d="M403.59,218.69s-4,2.22-10,5.36c-2.46,1.28-6,2.9-9.23,4.34,1-5.61,1.93-11.13,2.78-16.18l14.33-3.28Z"></path><path class="cls-6" d="M421.75,165.41s-.89,12-1.61,20l-15.59,2.83L394.37,184c-1.5-1.33-2.55-2.28-2.55-2.28l-.21-13.44,13.86,4.2S421.23,166.81,421.75,165.41Z"></path><path class="cls-6" d="M393.92,190c0,.94-3.15,11-3.15,12l-1.83-.19c1.25-7.43,2.05-12.29,2.05-12.29-3.1-9.43-6.55-23.84-9.51-37.2l1-1.41c3.39-5.09,1.53-15.91,1.39-17.16.55,1.92,7.88,28.27,8.17,29.18S393.92,189.08,393.92,190Z"></path><path class="cls-6" d="M390.87,108.84l-1.26,1s5.46,19.22,7.25,21.53l2-.21-.63,1.79s15.24,27.88,23.53,32.42l-18.7-43.77Z"></path><path class="cls-5" d="M400.85,105l-10.79,3.5s1.91,11.5,8.71,20.38l4.35-1.22L401,131.8s13.94,27.87,20.73,33.62c0,0-5.47-30.75-8.83-40.2S400.85,105,400.85,105Z"></path><path class="cls-5" d="M464.91,296a70.06,70.06,0,0,1-7.13,2.52c-4.2,1.27-18.71-.4-18.71-.4s-7.76-101.68-7.55-103.35,5.58-37.2,5.58-37.2l-.34-10.69-2.91-32.37,0-.19,1.89,3.42h0c1.82,3.34,4.7,8.6,7.39,13.6,1.33,2.45,2.6,4.83,3.67,6.9,2.35,7.24,5.64,17.76,5.51,19.13-.21,2-5.33,35.42-5.65,37.5a.42.42,0,0,0,0,.1s8.4,32.55,9.25,38.64c.42,3.08,2.7,18.9,4.87,33.83l.39,2.64C463.12,283.74,464.91,296,464.91,296Z"></path><path class="cls-6" d="M456.35,236.86c-3.85.94-11.76,2.94-11.76,2.94l12.33,1.1C456.7,239.36,456.51,238,456.35,236.86Z"></path><path class="cls-5" d="M448.21,239.8h10.45l2.18,29.48-10.47-1.38-5.2-28.1Z"></path><path class="cls-6" d="M452.31,157.36l-4.41,11.35-6.69,12.13-8,2.68c.21-1.67,3.91-26,3.91-26s8.09,2.23,9.54,1.69S452.31,157.36,452.31,157.36Z"></path><path class="cls-6" d="M437.1,157.55l-2.63-26.24-1.58-18.48,1,1.66,1.87,3.23h0c.63,1.18,1.4,2.58,2.24,4.12a61.18,61.18,0,0,1,.78,6.42s.31,2.21.43,6.51S437.1,157.55,437.1,157.55Z"></path><path class="cls-5" d="M437.11,157.55s-5.66-21.44-9.29-39.21a31.55,31.55,0,0,0,.61-9.74l4.88,1.55s3.14,12.45,4.56,16.86l-2.05,1.11,1.9,3.3S439.94,142.43,437.11,157.55Z"></path><polygon class="cls-21" points="446.76 146.83 440.47 147.17 439.61 144.43 445.9 144.09 446.76 146.83"></polygon><path class="cls-8" d="M389.27,201.29c.24-.16,5.36-3.23,6.54-4.49s1.65-2.29,1.89-2.21a2.16,2.16,0,0,1,1.58,2.6,38,38,0,0,1-2.13,3.86Z"></path><path class="cls-7" d="M408,201.9s-.63,7.76-.73,8.61-3.68,8.19-3.68,8.19-9.24-1.58-9.77-1.47-7.76.73-7.76.73-7.78-4.83-10.4-8.82c-1.16-1.76.37-4,2.46-6l0,0a38.5,38.5,0,0,1,6.12-4.51l.31.18c.14.08.34.2.57.31a15.05,15.05,0,0,0,3.32,1.5c.94.11,11-1.68,11-1.68Z"></path><path class="cls-8" d="M403.58,218.7s-9.24-1.58-9.77-1.47-7.76.73-7.76.73-7.78-4.83-10.4-8.82c-1.16-1.76.37-4,2.46-6l0,0,6.43-4.33.73-.5s-.06.29-.16.81c-.51,2.47-2.07,9.83-3.19,11.39-1.35,1.89,3.46,4.25,3.46,4.25l10.15.77Z"></path><path class="cls-5" d="M374.6,118.92s-28,31.55-31.93,35.71c0,0-.84,6.72-.84,9s18.9,42,29.41,51.88c0,0,10.92-6.09,14.07-17.22,0,0-20.38-26.26-23.74-34l19.91-12S382.16,128.59,374.6,118.92Z"></path><polygon class="cls-6" points="361.57 164.29 358 159.62 368.56 157.26 377.22 153.32 361.57 164.29"></polygon><path class="cls-10" d="M406.3,103.51s3.58,9.22,11.46,12.89l-4.83,8.82s-11-10-12.08-20.26Z"></path><path class="cls-10" d="M427.82,118.34c-.34,1.64-.66,2.68-.66,2.68-2.61-2.91-9.4-4.62-9.4-4.62,3.6-2.8,6.73-10.19,6.73-10.19l3.86,1.74c0,.21.06.42.08.65A31.55,31.55,0,0,1,427.82,118.34Z"></path><path class="cls-12" d="M416.28,116.77c-6.13-.32-9-2.68-9.76-4.88s-.22-8.38-.22-8.38a51.61,51.61,0,0,0,1.57-6.35c.14-.8.26-1.61.34-2.39.36-4,15.64,3.1,15.64,3.1a23.29,23.29,0,0,0-.16,5.65,6.45,6.45,0,0,0,.8,2.69C426.05,108.73,422.44,117.08,416.28,116.77Z"></path><path class="cls-13" d="M423.69,103.52c-2.52,1.78-5.55,3.24-7.8,2.3-2.91-1.24-6.09-5.6-8-8.66.14-.8.26-1.61.34-2.39.36-4,15.64,3.1,15.64,3.1A23.29,23.29,0,0,0,423.69,103.52Z"></path><path class="cls-12" d="M403.16,73.76s.35,15.44,2,18,6.79,10.4,11.62,11,14.29-5.88,16.6-11.34.84-7.77,1.47-13,2.91-12.22-.87-18.1-26.44-5-28.33.45A64.35,64.35,0,0,0,403.16,73.76Z"></path><path class="cls-12" d="M404.55,77.39s-3.14-3.15-4.71-1.57-.57,6.14.72,7.72a10.51,10.51,0,0,0,3.56,2.52Z"></path><path class="cls-15" d="M432,82.39c-.07-.11-.16-.22-.24-.33a2.68,2.68,0,0,0-.53-.48,2.94,2.94,0,0,0-1.31-.49,2.73,2.73,0,0,0-2.36,1,.28.28,0,0,0,.4.4,1.94,1.94,0,0,1,1.79-.4l.25.07,0,0,.12,0,.22.14,0,0,.09.08a.77.77,0,0,1,.18.18.6.6,0,0,1,.08.08l.06.07s0,0,0,.05l.08.12a1.67,1.67,0,0,0,.25.28.54.54,0,0,0,.6.11.52.52,0,0,0,.34-.5A1.21,1.21,0,0,0,432,82.39Z"></path><path class="cls-15" d="M418.63,81a1.67,1.67,0,0,0-.37-.5,3,3,0,0,0-1.09-.65,3.19,3.19,0,0,0-1.37-.12,3.6,3.6,0,0,0-1.54.44.43.43,0,0,0,.22.79,7.79,7.79,0,0,1,2.31-.06L417,81h0l.13.07.18.11,0,0,.09.08a2.5,2.5,0,0,1,.32.33s0,0,0,0a.77.77,0,0,0,.18.18l.17.11a.33.33,0,0,0,.55-.25c0-.08.05-.17.05-.25A1,1,0,0,0,418.63,81Z"></path><path class="cls-13" d="M423.79,87.31a3,3,0,0,1,0-1.29c.1-.48.28-1,.42-1.42a2.54,2.54,0,0,0,.18-1.51.47.47,0,0,0-.85-.11,5.5,5.5,0,0,0-.38,1.19c-.12.41-.27.81-.39,1.21a3.76,3.76,0,0,0,0,2.39,7.47,7.47,0,0,1,.49,1,.93.93,0,0,1-.19.75,2.08,2.08,0,0,1-1.86.5.2.2,0,0,0-.14.34,2,2,0,0,0,3.22-1.87C424.2,88.05,423.9,87.72,423.79,87.31Z"></path><path class="cls-15" d="M432.67,78.23c-.32-.11-.65-.22-1-.3a5.8,5.8,0,0,0-1.11-.11,7.15,7.15,0,0,0-1,0,1.54,1.54,0,0,0-1.11.38c-.14.16-.16.51.08.61a1,1,0,0,0,.56.1,5.62,5.62,0,0,0,.57-.09c.31,0,.62-.07.93-.09h1c.34,0,.68,0,1,0S433,78.33,432.67,78.23Z"></path><path class="cls-15" d="M420.49,77.16c-.25-.16-.49-.33-.73-.51a8.09,8.09,0,0,0-.69-.44c-.24-.13-.48-.27-.73-.39a1.74,1.74,0,0,0-1-.28.52.52,0,0,0-.43.25.47.47,0,0,0,0,.5,1.21,1.21,0,0,0,.44.43l.26.11.12,0c.3.13.59.23.89.34a7.58,7.58,0,0,0,.81.25c.28.07.56.14.84.24S420.78,77.33,420.49,77.16Z"></path><path class="cls-16" d="M425.32,93.41c-.74.19-1.45.48-2.19.64a6.89,6.89,0,0,1-2.31,0c-1.38-.17-2.91-.63-3.57-2-.17-.33-.75-.09-.61.26a4.79,4.79,0,0,0,3.83,2.73,7.43,7.43,0,0,0,2.7-.12,4.44,4.44,0,0,0,2.38-1.2A.24.24,0,0,0,425.32,93.41Z"></path><path d="M323.41,440.5c0,.63-1.47,15.33-1.68,20.16s-.42,12.81,1.47,14.28,15.54,1.69,18.49.21,1.47-13,1.26-16.59-2.1-18.06-2.1-18.06Z"></path><path class="cls-12" d="M324.57,442.39c0,.47-1.26,19.22-.95,21.27s16.38,2.52,17.17,1.26-1.42-22.37-1.42-22.37Z"></path><path d="M305.82,470.11l-.15,2.52s-6.77,0-7.1-.47.33-11.65.33-11.65-5.52,8.51-8.21,10.07-20.78,1.89-22.53.8-2.67-4.41-1.09-6.15,8.5-3.31,9.92-3.94,6.93-10.86,9.62-13.71,2.83-7.24,2.83-7.24l12.11.86,3.48.24C305.2,441.92,305.82,470.11,305.82,470.11Z"></path><path class="cls-12" d="M301.55,441.2c-.1,1.45-.75,9.34-3.61,13.64-3.14,4.72-15,9.77-20.95,6.45,1.41-.62,6.93-10.86,9.62-13.71s2.83-7.24,2.83-7.24Z"></path><path class="cls-5" d="M309.14,352.6s.94,21.11.31,27.72-2.53,62.07-2.53,62.07a27.62,27.62,0,0,1-3.33.45c-7.44.56-16.84-1.09-16.84-1.09,0-6.3-1.88-83.49-1.88-83.49s-6.61-45.67-8.19-61.12a138.83,138.83,0,0,1,0-25.14c.31-3.55.62-5.73.62-5.73l39.07,1.57Z"></path><path class="cls-6" d="M309.14,352.6s.94,21.11.31,27.72-2.53,62.07-2.53,62.07a27.62,27.62,0,0,1-3.33.45L306,417.5,304.09,358l-5.36-1.25,3.78-4.41s3.47-11.35,3.78-14.82-3.47-56.4-3.47-56.4L276.69,272c.31-3.55.62-5.73.62-5.73l39.07,1.57Z"></path><path class="cls-5" d="M349.77,309.75c-.62,9.77-4.72,37.8-4.72,37.8s-.05,13.46-.13,30.26c-.12,25.56-.31,60.5-.51,65.63,0,0-14.18,1.26-22.68-.63,0,0-5.68-89.58-5.68-94.32S306,266.58,306,266.58l11.13-.73,31.71-2.1C348.51,264.69,350.4,300,349.77,309.75Z"></path><path class="cls-7" d="M287.69,212a59.85,59.85,0,0,1-1.71,8.32h0A177.75,177.75,0,0,1,278,242.43s-.75-1.76-1.53-3.71c-.6-1.48-1.19-3.08-1.47-4.09a3,3,0,0,1-.16-.81,68.34,68.34,0,0,1,2.07-8l.24-.81s-.06-1.73-.16-4.43c-.34-9.36-1.09-30.49-1.09-32.12,0-1.17.07-7.32.13-12.53.05-4.11.08-7.64.08-7.64l11.14,1.06S289.17,200,287.69,212Z"></path><path class="cls-8" d="M286,220.29A177.75,177.75,0,0,1,278,242.43s-.75-1.76-1.53-3.71a22.24,22.24,0,0,0,.54-3.31c.27-2.78,1.22-8.66,1.22-8.66l-1.32-.94.24-.81s-.06-1.73-.16-4.43Z"></path><path class="cls-10" d="M288.54,172.91c-.81.09-1.77.14-2.77.16l-1.14,51.47a23.4,23.4,0,0,1-5.82.08,9,9,0,0,1-3.29-.86c-2.51-19.54-2.38-59.61-1.34-68.89,0,0,0-.08,0-.12.88-8.15,2.31-17.18,4.47-22.38a29.54,29.54,0,0,1,5-8.1,25,25,0,0,1,8.65-6.6s.11,3.78.18,9.35C292.71,142.64,292.58,172.43,288.54,172.91Z"></path><path class="cls-9" d="M276.38,180.65c.55,3.44,2,35.21,2.43,44a9,9,0,0,1-3.29-.86c-2.51-19.54-2.38-59.61-1.34-68.89,0,0,0-.08,0-.12.88-8.15,2.31-17.18,4.47-22.38a29.54,29.54,0,0,1,5-8.1c-2.13,6-6.13,17.46-6.44,19C276.8,145.36,275.76,176.65,276.38,180.65Z"></path><path class="cls-9" d="M353.45,266s-20,4.41-35.3,5.47-45.57-3.16-45.57-3.16,1.48-14.28,2.94-18.69,10.29-56.5,10.29-56.5S275.1,159.46,275.52,158c1-3.53,4-14.28,5.47-17.22s7.77-21,11.33-23.1,12.88-3.94,12.88-3.94l22.84.21,13.23,3.31s.13,20.82-.46,32.34a49.47,49.47,0,0,1-.6,6.51c-1.25,6.09-4,34.66-4,38.65,0,2.24,5.47,24.54,10.24,43.59C350.16,253.12,353.45,266,353.45,266Z"></path><path class="cls-10" d="M299.26,159.05s14.08,4.82,19.32,4.82,10.09-4,11.13-6.3,6.51-19.75,6.51-19.75l4.59,11.77a49.47,49.47,0,0,1-.6,6.51c-1.25,6.09-4,34.66-4,38.65,0,2.24,5.47,24.54,10.24,43.59Z"></path><rect class="cls-5" x="316.22" y="138.35" width="8.51" height="2.68" transform="translate(13.03 -26.74) rotate(4.88)"></rect><polygon class="cls-21" points="349.46 221.04 307.75 238.93 299.76 220.29 297.95 216.07 281.35 177.34 323.04 159.47 337.77 193.82 345.71 212.31 349.46 221.04"></polygon><path class="cls-7" d="M362.38,185c-.17,1-2.85,7.1-6.79,9.3-1.51.84-7.78,3.53-14.94,6.51-11.48,4.79-25.22,10.35-25.22,10.35l0,0c-.13.21-1.12,1.87-2.18,3.42a17.45,17.45,0,0,1-1.74,2.23c-1.41,1.41-10.87,4.41-14.18,3.63a7.59,7.59,0,0,1-3.5-2.69,28,28,0,0,1-2.54-3.56c-.14-.26-.29-.51-.42-.74a14.7,14.7,0,0,1-.94-1.84v-.37a7.38,7.38,0,0,1,.29-1.35,13.74,13.74,0,0,1,1.29-3.16l4.24-1.74s-3.63.16-4.88-.47a4.38,4.38,0,0,1-1.9-3.08v0a.38.38,0,0,1,.48-.37,86.53,86.53,0,0,0,11.19-1.11c1.22-.29,7.78,2.07,8.17,2.2l0,0s12.91-4.93,18.26-9.5,16.39-12.25,16.39-12.25-2.15-7.16-3.4-11.48c-.49-1.75-.85-3-.85-3.17l18-3.61s.78,3.17,1.74,7.17C360.46,175.79,362.48,184.4,362.38,185Z"></path><path class="cls-23" d="M308.81,202.16s-7.54-1.57-8.22-1.45-7.09.89-8,.89-3.4.64-3.66-.16v0a.38.38,0,0,1,.48-.37,86.53,86.53,0,0,0,11.19-1.11c1.22-.29,7.78,2.07,8.17,2.2Z"></path><path class="cls-23" d="M296.3,208.42l-3.12,1.37-3.27,1.82v-.37a7.38,7.38,0,0,1,.29-1.35Z"></path><path class="cls-8" d="M296.83,213c-.67.15-4.62,1-5.55,1.14l-.42-.73c.68,0,1.74-.08,2.44,0A21.61,21.61,0,0,0,296.83,213Z"></path><path class="cls-8" d="M343.94,195.38c-1.73.78-28.67,13.85-28.67,13.85l-4.57,5.85.12,0a19.25,19.25,0,0,1-2.4,1.75c-1.42.72-10.63,3.31-11.35,2.92a4.13,4.13,0,0,1-1.17-1l2.75-1.25-2.36.31h-2.47a7.52,7.52,0,0,0,3.5,2.68c3.3.79,12.76-2.21,14.18-3.63a17.5,17.5,0,0,0,1.73-2.23h0c.2-.3.41-.6.6-.9l.11-.16c.12-.2.25-.39.37-.58.58-.91,1-1.64,1.1-1.77l0,0s13.73-5.57,25.21-10.35l14.6-9.33C354.7,191.64,345.63,194.62,343.94,195.38Z"></path><path class="cls-9" d="M359,192.41c-3.39,3.46-42.77,21.21-42.77,21.21a30.49,30.49,0,0,0-1.22-3.89,73.24,73.24,0,0,0-4-8.65c9.81-5,32.47-20.67,32.47-20.67A122.36,122.36,0,0,1,339.73,168c-2.29-8.87-4.34-18.43-4.44-18.88v0c-.65-8.27-1-17,.1-20.75,2.31-8.19,5.87-11.12,5.87-11.12a55.77,55.77,0,0,1,8.83,10.92,31.47,31.47,0,0,1,2.39,5.57.1.1,0,0,0,0,0s0,0,0,0A184,184,0,0,1,357.9,155s0,.2.1.55c.78,3.88,1.32,7.13,1.51,9v0c1.09,6.75,3.18,17,3.26,19.71C362.93,189.1,362.35,189,359,192.41Z"></path><path class="cls-5" d="M298.79,91.93c-.07-.37-1.62-9.05-1.8-11.65l.81,0c.18,2.54,1.93,11.54,1.95,11.63Z"></path><path class="cls-12" d="M328,114c-5.52,10.07-18.9,18-18.9,18-3.16-6.89-3.94-18.22-3.94-18.22l.05-.11a12.83,12.83,0,0,0,1.06-3l.15-.67a28.25,28.25,0,0,0,.48-4,33.88,33.88,0,0,0,0-3.65,64.26,64.26,0,0,1,8.8-3c4.69-1.18,9.49-1.47,9.57,2.24,0,.34,0,.67,0,1s.06.94.11,1.38a33.08,33.08,0,0,0,1.11,6,25.92,25.92,0,0,0,1.41,4Z"></path><path class="cls-5" d="M328,114c-5.52,10.07-18.9,18-18.9,18-3.16-6.89-3.94-18.22-3.94-18.22l.05-.11c.16-.42.75-1.92,1.06-3,.06-.25.11-.48.15-.67,0,0,0,0,0,0s11.54,3,20.14,0l1.41,4Z"></path><path class="cls-6" d="M315.11,112a6,6,0,0,0,2.37-.82,46.52,46.52,0,0,1-5.56-.36A5.31,5.31,0,0,0,315.11,112Z"></path><path class="cls-13" d="M325.5,103.87c-1.81,2.14-6.92,7.92-10.39,8.17-2.52.19-5.86-3.27-8.17-6.12a32.13,32.13,0,0,0,0-3.65,65.52,65.52,0,0,1,8.81-3c3.45.91,7.78,2.18,9.6,3.24C325.41,103,325.45,103.43,325.5,103.87Z"></path><path class="cls-12" d="M297.63,73.29s.94,19.69,2.2,22.53,11.66,11.34,14.34,12.29S325.51,104,329,98.65s3.62-11.5,4.09-18,2.05-13.87-2.2-16.23-21.27-5.67-28.2-2.84S297.63,73.29,297.63,73.29Z"></path><path class="cls-15" d="M307.76,83.48a1.15,1.15,0,0,0-.38-.38,1.09,1.09,0,0,0-1.07,0l0,0h0a1.1,1.1,0,0,0-.4.4l-.05.08a1.06,1.06,0,0,0-.15.55l0,.3A1.14,1.14,0,0,0,306,85a1,1,0,0,0,.36.23.86.86,0,0,0,.42.09.88.88,0,0,0,.43-.09,1,1,0,0,0,.36-.23,1.14,1.14,0,0,0,.28-.49l0-.09a.94.94,0,0,0,0-.37A1.1,1.1,0,0,0,307.76,83.48Z"></path><path class="cls-15" d="M321.47,83.46l-.13-.32-.21-.27a.93.93,0,0,0-.43-.27.75.75,0,0,0-.33-.1,1.06,1.06,0,0,0-.53,0l-.32.13-.27.21a.92.92,0,0,0-.23.36l0-.08,0,.07,0,0a1.27,1.27,0,0,0-.17.63,1,1,0,0,0,.05.33,1.13,1.13,0,0,0,.31.54.69.69,0,0,0,.25.2,1.46,1.46,0,0,0,.41.11c.06,0,.12,0,.18.06s0,0,0,0h.1a.88.88,0,0,0,.23,0,1.09,1.09,0,0,0,.49-.16l.27-.21.21-.27a1,1,0,0,0,.15-.49A1,1,0,0,0,321.47,83.46Z"></path><path class="cls-15" d="M309.48,79.24c-.27-.54-1.1-.49-1.61-.48a14.17,14.17,0,0,0-1.6.08,7.43,7.43,0,0,0-3,1c-.31.18-.11.73.26.6a10.61,10.61,0,0,1,2.84-.62,6,6,0,0,1,1.4,0c.24,0,.47.11.71.16a1,1,0,0,0,.93-.16A.54.54,0,0,0,309.48,79.24Z"></path><path class="cls-15" d="M323.54,79.43a6,6,0,0,0-2.47-.83,5.89,5.89,0,0,0-1.26,0,5.38,5.38,0,0,0-.7.12l-.31.08-.15.05s-.15,0-.08,0a.68.68,0,1,0,.48,1.16,2.7,2.7,0,0,1,.94-.35,5.2,5.2,0,0,1,1-.14,4.94,4.94,0,0,1,2.18.43A.33.33,0,0,0,323.54,79.43Z"></path><path class="cls-13" d="M314.29,93.07a3.51,3.51,0,0,1-2.18-.9,1.21,1.21,0,0,1-.31-.87c0-.36.31-.48.6-.65a2.91,2.91,0,0,0,.8-.59,2.22,2.22,0,0,0,.44-1.19c.07-.51.11-1,.13-1.52a3.85,3.85,0,0,0-.17-1.51.64.64,0,0,0-1.22,0,16.54,16.54,0,0,0-.13,3.23c0,.38-.31.56-.58.8a2.41,2.41,0,0,0-.65.93,2,2,0,0,0,.65,2.09,4.3,4.3,0,0,0,2.54.77C314.54,93.69,314.62,93.14,314.29,93.07Z"></path><path class="cls-16" d="M317.59,96.37a6.53,6.53,0,0,1-1.32.6,4.42,4.42,0,0,1-1.45.15c-.45,0-.93-.07-1.36-.15a5.68,5.68,0,0,1-.71-.18,6.28,6.28,0,0,0-.73-.25.62.62,0,0,0-.6,1,3.41,3.41,0,0,0,1.66.78,3.94,3.94,0,0,0,1.87,0,6.24,6.24,0,0,0,1.56-.58,4.09,4.09,0,0,0,1.37-1A.24.24,0,0,0,317.59,96.37Z"></path><path class="cls-25" d="M314.77,100.66a.53.53,0,0,0-.21-.11,1.06,1.06,0,0,0-.25,0l-.32,0a5.52,5.52,0,0,0-.71.11.44.44,0,0,0-.3.53.45.45,0,0,0,.52.3l.22,0,.43,0a1.77,1.77,0,0,1,.23,0,.59.59,0,0,0,.26,0l.13-.07A.36.36,0,0,0,315,101,.4.4,0,0,0,314.77,100.66Z"></path><path class="cls-12" d="M330.71,85s3.46-4.1,5.67-1.26-5,10.23-5,10.23Z"></path><path class="cls-5" d="M327.32,94.16l-.72-.37c.17-.32,4-7.67,6.9-10l.51.64C331.26,86.65,327.36,94.09,327.32,94.16Z"></path><path class="cls-5" d="M328.9,96.71l-.33-.74.17.37-.17-.37s2.34-1.1,4.82-5.66l.72.39C331.47,95.54,329,96.67,328.9,96.71Z"></path><path class="cls-5" d="M298.79,91.93a34.89,34.89,0,0,1,15.76-3.26c8.59.4,16.16,6.63,16.16,6.63s-3.26,6.34-7,9.61-7.87,4.53-10.75,4.37-9-5.41-11-8.75A35.87,35.87,0,0,1,298.79,91.93Z"></path><path class="cls-17" d="M339.72,81.93c-1.24,7.32-8.55,13-9,13.34,1.72-3.37,3.43-11.88,1.85-14.19-1.23-1.82-3-5.54-6.79-7.73a12.14,12.14,0,0,0-3.5-1.4c-6.3-1.47-13.13-2.41-19.86,2.76-6.1,4.71-4.88,10.63-4.6,11.68q-.39-1-.69-2v0c-4.31-14,.44-27,9.84-31.63,6.59-3.22,14.83-2.5,21.24.3a24.17,24.17,0,0,1,4.67,2.63A17.85,17.85,0,0,1,336,58.5C341.7,65.09,341,74.36,339.72,81.93Z"></path><path class="cls-18" d="M310.31,90.31s6-.08,9.85,1.62,8.73,3.91,8.73,3.91-3.85,7.88-7.79,9.93a22.61,22.61,0,0,1-7.56,2.36,17.14,17.14,0,0,0,3.93-4.57c1.34-2.52,2.84-6.22.79-8.27S310.31,90.31,310.31,90.31Z"></path><path class="cls-14" d="M339.72,81.93c-1.24,7.32-8.55,13-9,13.34,1.72-3.37,3.43-11.88,1.85-14.19-1.23-1.82-3-5.54-6.79-7.73a41.68,41.68,0,0,1,7.79,1.87c2.26,1,2.39.63.53-3s-2.63-5.26-.36-6,5.28,1,3.05-3.12c-1.24-2.26-2.79-5.24-3.91-7.46A17.85,17.85,0,0,1,336,58.5C341.7,65.09,341,74.36,339.72,81.93Z"></path><path class="cls-19" d="M328.21,53a15.42,15.42,0,0,0-4.51-.67c-2,.31-7.72.18-11.77,1.35A41.43,41.43,0,0,0,303.11,58s-4.15,4.79-5.1,8.4-.88,17.19-.88,18c-4.31-14,.44-27,9.84-31.63C313.56,49.5,321.8,50.22,328.21,53Z"></path><path class="cls-21" d="M438.55,71.93s-20.14-2-24.72-8c0,0-5,15.37-10.58,12.38,0,0-4.68-5.61-.09-17S437.1,43.23,438.55,71.93Z"></path><path class="cls-20" d="M196.81,36.92c-5.69,3-4.29,8.56-4.76,14.13-.2,2.29-.87,4.53-1.18,6.76-1.44-2.28-2.28-9.91-2.48-12.56-1.24-16.48,3.88-26.69.38-11.64-.81,3.5,9-7.39,12.42-8.44,4.89-1.5,3.52,2.9,2.37,8.13Z"></path><path class="cls-20" d="M224.84,23.11c1.28,0,.27,4.61,1.46,5.32,2.63,1.57.23,3.71,1,6.4a95.91,95.91,0,0,1,2.36,10.33c.23,1.36.14,3.32.68,4.6-.63-1.49.08,2.4-2,4.81-.87,1-.1-.94-.44.29-.46,1.64-.85,1.08-2.28,1.26-.71-4.59-5-17.82-9.94-17.68-6.08.18-28.38,6.15-28.77-4.67-.22-6.08,3.63-13.32,13.15-13.57C200.09,20.2,217.69,16.67,224.84,23.11Z"></path></g></g></svg>